<svg width="25" height="25" viewBox="0 0 25 25" fill="none" xmlns="http://www.w3.org/2000/svg">
<path fill-rule="evenodd" clip-rule="evenodd" d="M14.9583 8.03802C14.4546 8.84297 12.4679 9.99163 12.5004 11.2241C12.5293 12.3291 14.3453 13.6862 14.9678 14.3364C15.4964 14.7776 16.0822 15.605 16.7383 15.8619C17.9803 16.3479 18.4268 15.4266 18.9358 14.9134C23.0881 10.7322 23.3509 11.774 19.1679 7.5821C16.6078 5.01608 16.5612 7.06654 14.9583 8.03802Z" fill="#6BCB3D"/>
<path fill-rule="evenodd" clip-rule="evenodd" d="M9.16529 7.25552C10.8083 8.14669 10.8638 10.3962 12.9774 8.29256L13.7729 7.49647C13.8013 7.47226 13.8869 7.40493 13.9158 7.38485C14.1338 7.23485 13.9164 7.34647 14.1556 7.25552C14.7733 6.06139 16.8055 5.72122 14.9222 3.86801C13.9353 2.89652 13.1304 2.04315 12.0142 1.14844H11.3209C10.1078 2.0024 9.41215 2.84869 8.39578 3.84321C6.55793 5.64031 8.46724 6.09918 9.16529 7.25552Z" fill="#F3D244"/>
<path fill-rule="evenodd" clip-rule="evenodd" d="M7.12833 9.19765C7.19624 9.84492 6.97301 9.30336 7.38523 9.81657C7.57657 10.0546 8.44412 10.7018 8.51853 10.967C8.55337 12.0785 7.43365 12.1972 7.05273 13.0942L9.26973 15.3295C9.85853 14.9244 10.8655 13.474 11.6692 13.4893C12.4541 13.5041 13.3854 14.9681 14.0398 15.3514C14.3185 14.9362 14.7124 14.6557 14.9681 14.3374C14.3457 13.6872 12.5297 12.33 12.5007 11.2251C12.4683 9.99256 14.4549 8.8439 14.9587 8.03896L14.1561 7.25586C13.9169 7.34681 14.1343 7.23519 13.9163 7.38519C13.8874 7.40527 13.8018 7.4726 13.7734 7.49681L12.9779 8.2929C10.8643 10.3965 10.8088 8.14703 9.16579 7.25586L7.12833 9.19765Z" fill="#333CF6"/>
<path fill-rule="evenodd" clip-rule="evenodd" d="M9.26929 15.3286C8.5547 16.316 7.28497 16.7336 8.81632 18.1988C9.69036 19.035 10.2839 19.7236 11.2672 20.5185H12.0491C12.7229 19.8973 13.2084 19.4366 13.8249 18.8248C14.3405 18.3128 15.2884 17.7139 15.1555 16.671C14.875 16.0798 14.3748 15.8778 14.0393 15.3505C13.385 14.9672 12.4536 13.5032 11.6688 13.4884C10.865 13.473 9.85809 14.9235 9.26929 15.3286Z" fill="#E0411C"/>
<path fill-rule="evenodd" clip-rule="evenodd" d="M3.71094 10.9361V11.4605C4.13674 12.0298 4.62927 12.4597 5.14898 12.9771C6.22263 14.0472 6.06081 13.5481 7.05238 13.094C7.4333 12.1969 8.55302 12.0782 8.51818 10.9668C8.44376 10.7016 7.57622 10.0543 7.38487 9.81633C6.97265 9.30313 7.19589 9.84468 7.12797 9.19742C6.62776 9.37104 7.13565 8.82654 5.96632 8.80469C5.40764 9.08344 4.16036 10.4128 3.71094 10.9361Z" fill="#7D83FF"/>
</svg>
